<?xml version="1.0" encoding="iso-8859-1"?>
<!-- Generator: Adobe Illustrator 19.0.0, SVG Export Plug-In . SVG Version: 6.00 Build 0)  -->
<svg version="1.1" id="Capa_1" xmlns="http://www.w3.org/2000/svg" xmlns:xlink="http://www.w3.org/1999/xlink" x="0px" y="0px"
	 viewBox="0 0 47.354 47.354" style="enable-background:new 0 0 47.354 47.354;" xml:space="preserve">
<g>
	<path d="M44.225,18.872H38.93c-0.281-0.894-0.639-1.758-1.069-2.584l3.743-3.742c1.22-1.221,1.22-3.207,0-4.426l-2.369-2.369
		c-1.182-1.182-3.245-1.183-4.427,0l-3.743,3.743c-0.826-0.431-1.69-0.788-2.583-1.069V3.13c0-1.726-1.404-3.13-3.13-3.13h-3.351
		c-1.726,0-3.13,1.404-3.13,3.13v5.294c-0.894,0.281-1.758,0.639-2.584,1.069l-3.742-3.743c-1.183-1.183-3.245-1.183-4.426,0
		L5.751,8.119C5.159,8.71,4.833,9.497,4.833,10.333c0,0.836,0.326,1.622,0.917,2.213l3.742,3.743
		c-0.43,0.826-0.788,1.69-1.068,2.583H3.13c-1.726,0-3.13,1.404-3.13,3.13v3.351c0,1.726,1.404,3.13,3.13,3.13h5.294
		c0.281,0.893,0.638,1.757,1.068,2.583l-3.742,3.743c-0.591,0.591-0.917,1.377-0.917,2.213s0.326,1.622,0.917,2.213l2.369,2.369
		c1.183,1.183,3.244,1.183,4.427,0l3.742-3.743c0.826,0.431,1.691,0.788,2.584,1.068v5.295c0,1.726,1.404,3.13,3.13,3.13h3.351
		c1.726,0,3.13-1.404,3.13-3.13V38.93c0.893-0.28,1.757-0.638,2.583-1.068l3.742,3.743c1.183,1.183,3.246,1.182,4.427,0l2.369-2.369
		c1.22-1.22,1.22-3.206,0-4.426l-3.743-3.743c0.431-0.826,0.788-1.69,1.069-2.583h5.294c1.726,0,3.13-1.404,3.13-3.13v-3.351
		C47.354,20.276,45.95,18.872,44.225,18.872z M45.354,25.353c0,0.623-0.507,1.13-1.13,1.13h-6.047c-0.454,0-0.852,0.307-0.967,0.747
		c-0.324,1.235-0.812,2.415-1.451,3.507c-0.23,0.392-0.166,0.891,0.156,1.212l4.274,4.274c0.441,0.441,0.441,1.158,0,1.598
		l-2.37,2.369c-0.425,0.427-1.17,0.427-1.598,0l-4.274-4.275c-0.321-0.321-0.82-0.386-1.212-0.156
		c-1.092,0.64-2.272,1.128-3.506,1.451c-0.44,0.115-0.747,0.512-0.747,0.967v6.047c0,0.623-0.507,1.13-1.13,1.13h-3.351
		c-0.623,0-1.13-0.507-1.13-1.13v-6.047c0-0.455-0.307-0.853-0.747-0.967c-1.235-0.323-2.414-0.811-3.506-1.451
		c-0.157-0.092-0.332-0.137-0.505-0.137c-0.259,0-0.515,0.1-0.708,0.293l-4.274,4.275c-0.427,0.427-1.171,0.427-1.598,0l-2.369-2.37
		c-0.213-0.213-0.331-0.497-0.331-0.798c0-0.302,0.118-0.586,0.331-0.799l4.274-4.274c0.322-0.321,0.386-0.82,0.156-1.212
		c-0.64-1.093-1.128-2.273-1.451-3.507c-0.115-0.44-0.513-0.747-0.967-0.747H3.13c-0.623,0-1.13-0.507-1.13-1.13v-3.351
		c0-0.623,0.507-1.13,1.13-1.13h6.047c0.455,0,0.852-0.307,0.967-0.747c0.324-1.235,0.811-2.415,1.451-3.507
		c0.23-0.393,0.166-0.891-0.156-1.212l-4.274-4.274c-0.213-0.213-0.331-0.498-0.331-0.799c0-0.302,0.118-0.585,0.331-0.799
		l2.37-2.369c0.426-0.427,1.171-0.427,1.598,0l4.274,4.275c0.321,0.323,0.821,0.386,1.212,0.156
		c1.091-0.639,2.271-1.127,3.507-1.451c0.44-0.115,0.747-0.513,0.747-0.967V3.13c0-0.623,0.507-1.13,1.13-1.13h3.351
		c0.623,0,1.13,0.507,1.13,1.13v6.047c0,0.455,0.307,0.852,0.747,0.967c1.235,0.324,2.415,0.811,3.507,1.451
		c0.392,0.231,0.891,0.166,1.212-0.156l4.275-4.275c0.426-0.427,1.171-0.426,1.598,0l2.369,2.369c0.44,0.44,0.44,1.157,0,1.598
		l-4.275,4.274c-0.322,0.322-0.386,0.82-0.156,1.212c0.639,1.091,1.127,2.271,1.451,3.507c0.115,0.44,0.513,0.747,0.967,0.747h6.047
		c0.623,0,1.13,0.507,1.13,1.13V25.353z"/>
	<path d="M23.677,13.952c-1.624,0-3.232,0.409-4.65,1.182c-0.485,0.264-0.664,0.872-0.399,1.356
		c0.265,0.484,0.871,0.665,1.357,0.399c1.125-0.614,2.402-0.938,3.693-0.938c4.26,0,7.725,3.465,7.725,7.725
		c0,4.26-3.465,7.725-7.725,7.725c-4.26,0-7.725-3.465-7.725-7.725c0-1.183,0.26-2.318,0.773-3.372
		c0.241-0.497,0.035-1.095-0.462-1.337c-0.497-0.242-1.095-0.036-1.337,0.462c-0.646,1.329-0.975,2.758-0.975,4.247
		c0,5.362,4.363,9.725,9.725,9.725s9.725-4.363,9.725-9.725S29.04,13.952,23.677,13.952z"/>
</g>
<g>
</g>
<g>
</g>
<g>
</g>
<g>
</g>
<g>
</g>
<g>
</g>
<g>
</g>
<g>
</g>
<g>
</g>
<g>
</g>
<g>
</g>
<g>
</g>
<g>
</g>
<g>
</g>
<g>
</g>
</svg>
